<svg
          width="100%"
          height="100%"
          id="svg"
          viewBox="0 0 1440 500"
          xmlns="http://www.w3.org/2000/svg"
          class="transition duration-300 ease-in-out delay-150"
        >
          <path
            d="M 0,700 L 0,131 C 82.93369975953283,140.76193747852972 165.86739951906566,150.52387495705945 235,152 C 304.13260048093434,153.47612504294055 359.4641016832703,147.66644383373412 421,141 C 482.5358983167297,134.33355616626588 550.276193747853,124.41036448367984 612,110 C 673.723806252147,95.58963551632016 729.4311233253179,73.69206458045748 797,71 C 864.5688766746821,68.30793541954252 943.999312950876,86.02136724859679 1024,92 C 1104.000687049124,97.97863275140321 1184.5716248711783,94.82246650378521 1254,99 C 1323.4283751288217,103.17753349621479 1381.7141875644108,114.5887667468224 1440,131 L 1440,700 L 0,700 Z"
            stroke="none"
            stroke-width="0"
            fill="#677d6a"
            fill-opacity="0.4"
            class="transition-all duration-300 ease-in-out delay-150 path-0"
            transform="rotate(-180 720 350)"
          ></path>
          <path
            d="M 0,700 L 0,305 C 55.35898316729647,329.53335892646084 110.71796633459294,354.0667178529217 174,336 C 237.28203366540706,317.9332821470783 308.48711782892474,258.0664954608177 377,263 C 445.51288217107526,267.9335045391823 511.333562349708,337.6672621892407 583,342 C 654.666437650292,346.3327378107593 732.1786327722432,280.06445123383407 799,280 C 865.8213672277568,279.93554876616593 921.9519065613192,344.27495705944795 990,346 C 1058.0480934386808,347.72504294055205 1138.0137409824802,286.03572655582924 1215,269 C 1291.9862590175198,251.96427344417076 1365.99312950876,278.5821367227757 1440,305 L 1440,700 L 0,700 Z"
            stroke="none"
            stroke-width="0"
            fill="#677d6a"
            fill-opacity="0.53"
            class="transition-all duration-300 ease-in-out delay-150 path-1"
            transform="rotate(-180 720 350)"
          ></path>
          <path
            d="M 0,700 L 0,480 C 43.455857093782214,513.0074167984592 86.91171418756443,546.0148335969184 168,532 C 249.08828581243557,517.9851664030816 367.80900034352453,456.94805722432323 443,462 C 518.1909996564755,467.05194277567677 549.8522844383374,538.1929336997595 598,545 C 646.1477155616626,551.8070663002405 710.781861903126,494.2802404671761 797,484 C 883.218138096874,473.7197595328239 991.0202679491583,510.68602233940916 1055,523 C 1118.9797320508417,535.3139776605908 1139.1370663002406,522.9754088973063 1196,522 C 1252.8629336997594,521.0245911026937 1346.4314668498796,531.4122955513468 1440,542 L 1440,700 L 0,700 Z"
            stroke="none"
            stroke-width="0"
            fill="#677d6a"
            fill-opacity="1"
            class="transition-all duration-300 ease-in-out delay-150 path-2"
            transform="rotate(-180 720 350)"
          ></path>
        </svg>